#N canvas 96 203 927 773 10;
#X obj 116 481 line~;
#X floatatom 186 330 5 0 0 0 - - -;
#X obj 117 258 t f f;
#X obj 109 411 pack f f f;
#X obj 145 356 +;
#X floatatom 120 228 10 0 0 0 - - -;
#X msg 113 449 \$1 \, \$2 \$3, f 14;
#X obj 125 118 inlet;
#X obj 119 720 outlet~;
#X obj 200 274 r grain_dur;
#X obj 123 163 t f b, f 74;
#X obj 564 208 t b b;
#X obj 558 246 del 50;
#X msg 558 267 0;
#X msg 613 252 1;
#X obj 556 341 line~;
#X obj 116 535 *~, f 73;
#X obj 641 118 r grain_dur;
#X obj 219 722 outlet~;
#X obj 597 475 random 100;
#X floatatom 598 497 5 0 0 0 - - -;
#X obj 598 453 bng 15 250 50 0 empty empty empty 17 7 0 10 -262144
-1 -1;
#X obj 599 519 / 100;
#X floatatom 599 540 5 0 0 0 - - -;
#X obj 118 619 *~;
#X obj 230 631 *~;
#X obj 603 564 t b f;
#X floatatom 603 642 5 0 0 0 - - -;
#X obj 604 620 -;
#X msg 602 589 1;
#X obj 610 201 - 50;
#X obj 195 357 * 44.1;
#X obj 184 383 +;
#X obj 302 336 r detune;
#X obj 569 302 pack f 50;
#X obj 641 139 / 4;
#X obj 692 383 random 100;
#X obj 693 361 bng 15 250 50 0 empty empty empty 17 7 0 10 -262144
-1 -1;
#X obj 199 308 +;
#X obj 116 512 tabread4~ grainArray1;
#X connect 0 0 39 0;
#X connect 1 0 31 0;
#X connect 1 0 32 0;
#X connect 2 0 3 0;
#X connect 2 1 4 0;
#X connect 3 0 6 0;
#X connect 4 0 3 1;
#X connect 5 0 2 0;
#X connect 6 0 0 0;
#X connect 7 0 10 0;
#X connect 9 0 38 1;
#X connect 10 0 5 0;
#X connect 10 1 11 0;
#X connect 11 0 12 0;
#X connect 11 1 14 0;
#X connect 12 0 13 0;
#X connect 13 0 34 0;
#X connect 14 0 21 0;
#X connect 14 0 34 0;
#X connect 14 0 37 0;
#X connect 15 0 16 1;
#X connect 16 0 24 0;
#X connect 16 0 25 0;
#X connect 17 0 30 0;
#X connect 17 0 35 0;
#X connect 19 0 20 0;
#X connect 20 0 22 0;
#X connect 21 0 19 0;
#X connect 22 0 23 0;
#X connect 23 0 24 1;
#X connect 23 0 26 0;
#X connect 24 0 8 0;
#X connect 25 0 18 0;
#X connect 26 0 29 0;
#X connect 26 1 28 1;
#X connect 27 0 25 1;
#X connect 28 0 27 0;
#X connect 29 0 28 0;
#X connect 30 0 12 1;
#X connect 31 0 4 1;
#X connect 32 0 3 2;
#X connect 33 0 32 1;
#X connect 34 0 15 0;
#X connect 35 0 30 1;
#X connect 35 0 34 1;
#X connect 36 0 38 0;
#X connect 37 0 36 0;
#X connect 38 0 1 0;
#X connect 39 0 16 0;
