#N canvas 688 0 1073 988 10;
#X obj 524 -178 soundfiler;
#X floatatom 523 -144 10 0 0 0 - - -;
#X obj 620 177 s grain_dur;
#X floatatom 610 124 5 0 0 0 - - -;
#X obj 205 864 dac~;
#X msg 95 645 next \$1;
#X obj 95 579 *~;
#X obj 523 -124 s fileDuration;
#X obj 126 524 r fileDuration;
#X floatatom 126 545 10 0 0 0 - - -;
#X obj 95 600 snapshot~;
#X obj 492 425 metro 125;
#X obj 493 384 tgl 15 0 empty empty empty 17 7 0 10 -262144 -1 -1 0
1;
#X floatatom 95 621 10 0 0 0 - - -;
#X floatatom 526 554 5 0 0 0 - - -;
#X obj 492 451 random 10;
#X obj 520 518 + 50;
#X floatatom 557 328 5 0 0 0 - - -;
#X floatatom 586 463 5 0 0 0 - - -;
#X obj 186 -437 netreceive -u -b 8765;
#X obj 176 -397 oscparse;
#X floatatom 114 -198 5 0 0 0 - - -;
#X floatatom 173 -197 5 0 0 0 - - -;
#X obj 103 741 *~ 0.5;
#X obj 163 739 *~ 0.5;
#X obj 172 -328 route chan presence;
#X obj 171 -368 route list;
#X obj 132 -235 unpack f f;
#X floatatom 419 -211 5 0 0 0 - - -;
#X obj 486 279 loadbang;
#X obj 524 -259 loadbang;
#X msg 491 343 1;
#X obj 629 241 s detune;
#X floatatom 340 72 5 0 0 0 - - -;
#X obj 52 -82 change;
#X obj 63 -34 +;
#X floatatom 42 9 5 0 0 0 - - -;
#X msg 10 -42 0;
#X obj 4 -81 sel 0;
#X obj 369 -95 change;
#X obj 378 -37 +;
#X floatatom 343 13 5 0 0 0 - - -;
#X obj 319 -84 sel 0;
#X obj 43 67 change;
#X text 648 128 GrainDuration;
#X text 629 466 GraindRandom;
#X text 593 329 GrainAmount;
#X text 683 242 pitchDelta;
#X msg 556 305 20, f 6;
#X obj 485 -308 openpanel;
#X obj 498 -355 bng 15 250 50 0 empty empty empty 17 7 0 10 -262144
-1 -1;
#X obj 587 399 loadbang;
#X obj 627 13 loadbang;
#X obj 966 -432 loadbang;
#X msg 966 -395 \; pd dsp 1;
#X msg 524 -222 read -resize bell.wav grainArray1;
#X obj 522 -72 array define grainArray1;
#X msg 485 -287 read -resize \$1 grainArray1;
#X msg 284 645 next \$1;
#X obj 284 579 *~;
#X floatatom 315 545 10 0 0 0 - - -;
#X obj 284 600 snapshot~;
#X floatatom 284 621 10 0 0 0 - - -;
#X obj 292 741 *~ 0.5;
#X obj 352 739 *~ 0.5;
#X obj 766 -72 array define grainArray2;
#X obj 813 -173 soundfiler;
#X floatatom 812 -139 10 0 0 0 - - -;
#X obj 813 -254 loadbang;
#X obj 774 -303 openpanel;
#X obj 787 -350 bng 15 250 50 0 empty empty empty 17 7 0 10 -262144
-1 -1;
#X msg 813 -217 read -resize bell_long.wav grainArray2;
#X msg 774 -282 read -resize \$1 grainArray2;
#X floatatom 282 382 5 0 0 0 - - -;
#X obj 99 494 clip 0.1 1;
#X obj 284 491 clip 0.1 1;
#X msg 336 -31 0;
#X obj 342 45 change;
#X obj 812 -119 s fileDuration2;
#X obj 315 524 r fileDuration2;
#X text 495 -388 INHALE;
#X text 774 -384 Exhale;
#X text 102 463 INHALE;
#X text 290 469 Exhale;
#X obj 101 684 clone Grain 128;
#X obj 290 684 clone Grain2 128;
#X floatatom 95 416 5 0 0 0 - - -;
#X obj 246 483 bng 15 250 50 0 empty empty empty 17 7 0 10 -262144
-1 -1;
#X obj 416 -184 change;
#X floatatom 62 189 5 0 0 0 - - -;
#X obj 203 0 bng 30 250 50 0 empty empty Reset_Calibration 35 15 0
12 -258113 -1 -1;
#X obj 40 210 / 1;
#X floatatom 51 236 5 0 0 0 - - -;
#X floatatom 299 189 5 0 0 0 - - -;
#X obj 277 210 / 1;
#X floatatom 267 231 5 0 0 0 - - -;
#X floatatom 42 96 5 0 0 0 - - -;
#X obj 87 259 expr 1 - $f1;
#X obj 308 294 expr 1 - $f1;
#N canvas 73 469 450 300 biggestValue1 0;
#X obj 104 119 inlet;
#X obj 170 101 inlet;
#X obj 98 278 outlet;
#X floatatom 80 150 5 0 0 0 - - -;
#X floatatom 128 182 5 0 0 0 - - -;
#X obj 79 248 spigot;
#X msg 147 155 0;
#X obj 166 127 bng 15 250 50 0 empty empty empty 17 7 0 10 -262144
-1 -1;
#X obj 94 214 >;
#X obj 75 183 t f f;
#X connect 0 0 3 0;
#X connect 1 0 7 0;
#X connect 3 0 9 0;
#X connect 4 0 8 1;
#X connect 5 0 4 0;
#X connect 5 0 2 0;
#X connect 6 0 4 0;
#X connect 7 0 6 0;
#X connect 8 0 5 1;
#X connect 9 0 5 0;
#X connect 9 1 8 0;
#X restore 49 151 pd biggestValue1;
#N canvas 73 469 450 300 biggestValue2 0;
#X obj 104 119 inlet;
#X obj 170 101 inlet;
#X obj 98 278 outlet;
#X floatatom 80 150 5 0 0 0 - - -;
#X floatatom 128 182 5 0 0 0 - - -;
#X obj 79 248 spigot;
#X msg 147 155 0;
#X obj 166 127 bng 15 250 50 0 empty empty empty 17 7 0 10 -262144
-1 -1;
#X obj 94 214 >;
#X obj 75 183 t f f;
#X connect 0 0 3 0;
#X connect 1 0 7 0;
#X connect 3 0 9 0;
#X connect 4 0 8 1;
#X connect 5 0 4 0;
#X connect 5 0 2 0;
#X connect 6 0 4 0;
#X connect 7 0 6 0;
#X connect 8 0 5 1;
#X connect 9 0 5 0;
#X connect 9 1 8 0;
#X restore 324 155 pd biggestValue2;
#X floatatom 150 295 5 0 0 1 ReleaseTime - -;
#N canvas 0 50 450 300 release 0;
#X obj 171 96 inlet;
#X obj 248 95 inlet;
#X obj 207 287 outlet;
#X obj 116 192 t b b;
#X msg 323 228 0;
#X obj 104 150 bng 15 250 50 0 empty empty empty 17 7 0 10 -262144
-1 -1;
#X obj 105 128 sel 0;
#X obj 232 229 pack 1 1000;
#X obj 213 258 line;
#X obj 324 102 inlet;
#X connect 0 0 6 0;
#X connect 1 0 8 0;
#X connect 3 0 7 0;
#X connect 3 1 4 0;
#X connect 4 0 8 0;
#X connect 5 0 3 0;
#X connect 6 0 5 0;
#X connect 7 0 8 0;
#X connect 8 0 2 0;
#X connect 9 0 7 1;
#X restore 84 327 pd release;
#N canvas 0 50 450 300 release 0;
#X obj 171 96 inlet;
#X obj 248 95 inlet;
#X obj 207 287 outlet;
#X obj 116 192 t b b;
#X msg 323 228 0;
#X obj 104 150 bng 15 250 50 0 empty empty empty 17 7 0 10 -262144
-1 -1;
#X obj 105 128 sel 0;
#X obj 232 229 pack 1 1000;
#X obj 213 258 line;
#X obj 324 102 inlet;
#X connect 0 0 6 0;
#X connect 1 0 8 0;
#X connect 3 0 7 0;
#X connect 3 1 4 0;
#X connect 4 0 8 0;
#X connect 5 0 3 0;
#X connect 6 0 5 0;
#X connect 7 0 8 0;
#X connect 8 0 2 0;
#X connect 9 0 7 1;
#X restore 289 342 pd release;
#X msg 587 430 10;
#X msg 627 55 100;
#X floatatom 574 208 5 0 0 0 - - -;
#X floatatom 365 320 5 0 0 1 ReleaseTime - -;
#X connect 0 0 1 0;
#X connect 1 0 7 0;
#X connect 3 0 2 0;
#X connect 5 0 84 0;
#X connect 6 0 10 0;
#X connect 8 0 9 0;
#X connect 9 0 6 1;
#X connect 10 0 13 0;
#X connect 11 0 15 0;
#X connect 11 0 87 0;
#X connect 12 0 11 0;
#X connect 13 0 5 0;
#X connect 14 0 11 1;
#X connect 15 0 16 0;
#X connect 16 0 14 0;
#X connect 17 0 16 1;
#X connect 18 0 15 1;
#X connect 19 0 20 0;
#X connect 20 0 26 0;
#X connect 21 0 38 0;
#X connect 21 0 34 0;
#X connect 22 0 42 0;
#X connect 22 0 39 0;
#X connect 23 0 4 0;
#X connect 24 0 4 1;
#X connect 25 0 27 0;
#X connect 25 1 28 0;
#X connect 26 0 25 0;
#X connect 27 0 21 0;
#X connect 27 1 22 0;
#X connect 28 0 88 0;
#X connect 29 0 48 0;
#X connect 29 0 31 0;
#X connect 30 0 55 0;
#X connect 31 0 12 0;
#X connect 33 0 94 0;
#X connect 33 0 100 0;
#X connect 34 0 35 0;
#X connect 35 0 36 0;
#X connect 36 0 35 1;
#X connect 36 0 43 0;
#X connect 37 0 36 0;
#X connect 38 0 37 0;
#X connect 39 0 40 0;
#X connect 40 0 41 0;
#X connect 41 0 40 1;
#X connect 41 0 77 0;
#X connect 42 0 76 0;
#X connect 43 0 96 0;
#X connect 48 0 17 0;
#X connect 49 0 57 0;
#X connect 50 0 49 0;
#X connect 51 0 104 0;
#X connect 52 0 105 0;
#X connect 53 0 54 0;
#X connect 55 0 0 0;
#X connect 57 0 0 0;
#X connect 58 0 85 0;
#X connect 59 0 61 0;
#X connect 60 0 59 1;
#X connect 61 0 62 0;
#X connect 62 0 58 0;
#X connect 63 0 4 0;
#X connect 64 0 4 1;
#X connect 66 0 67 0;
#X connect 67 0 78 0;
#X connect 68 0 71 0;
#X connect 69 0 72 0;
#X connect 70 0 69 0;
#X connect 71 0 66 0;
#X connect 72 0 66 0;
#X connect 73 0 75 0;
#X connect 74 0 6 0;
#X connect 75 0 59 0;
#X connect 76 0 41 0;
#X connect 77 0 33 0;
#X connect 79 0 60 0;
#X connect 84 0 23 0;
#X connect 84 1 24 0;
#X connect 85 0 63 0;
#X connect 85 1 64 0;
#X connect 86 0 74 0;
#X connect 87 0 61 0;
#X connect 87 0 10 0;
#X connect 88 0 12 0;
#X connect 89 0 91 1;
#X connect 90 0 99 1;
#X connect 90 0 100 1;
#X connect 91 0 92 0;
#X connect 92 0 97 0;
#X connect 92 0 102 0;
#X connect 93 0 94 1;
#X connect 94 0 95 0;
#X connect 95 0 98 0;
#X connect 95 0 103 0;
#X connect 96 0 99 0;
#X connect 96 0 91 0;
#X connect 97 0 102 1;
#X connect 98 0 103 1;
#X connect 99 0 89 0;
#X connect 100 0 93 0;
#X connect 101 0 102 2;
#X connect 102 0 86 0;
#X connect 103 0 73 0;
#X connect 104 0 18 0;
#X connect 105 0 3 0;
#X connect 106 0 32 0;
#X connect 107 0 103 2;
#X coords 0 9880 10 9870 85 60 0;
